<svg xmlns="http://www.w3.org/2000/svg" viewBox="0 0 64 64"><rect width="64" height="64" rx="6" style="fill:#e2561d"></rect><path d="M13.22,14.14A1.16,1.16,0,0,1,14.31,13l7.63-.43a26.48,26.48,0,0,1,8.11-1.24c8.05,0,16.49,3.48,19.21,11.82a28.64,28.64,0,0,1,1.52,8.82C50.78,45.41,39,52.8,25.42,52.8a40,40,0,0,1-6.67-.57,9.78,9.78,0,0,0-1.1-.19,2.88,2.88,0,0,1-2.57-3ZM26.66,41.6a8.77,8.77,0,0,0,1.15,0,9.77,9.77,0,0,0,10.1-10c0-.81,0-10.25-8.87-10.25a14.18,14.18,0,0,0-3.43.47Z" style="fill:#fff"></path></svg>