<svg xmlns="http://www.w3.org/2000/svg" viewBox="0 0 64 64"><rect width="64" height="64" rx="6" style="fill:#e2561d"></rect><path d="M39.1,51.37c-.52,0-1-.48-1.24-.9-1-1.58-10.53-19.31-12.58-21.88-.19-.29-.38-.39-.53-.39s-.33.2-.33.58V29l2.43,20.3v0a1.78,1.78,0,0,1-1.67,1.62l-8.91,1.15h-.14a1.53,1.53,0,0,1-1.34-1.39l-2-36.56v-.09c0-.53.34-1.67,1.29-1.72l9.29-.43h.1a3.57,3.57,0,0,1,1.91.62c2.86,2.86,8.72,12.59,13.2,20.17.14.28.29.38.43.38s.29-.29.29-.67l.57-19.5a1.13,1.13,0,0,1,1.09-1.09H41l9.15.57a1.09,1.09,0,0,1,1.1,1.14c0,1.24-1.29,28.41-2,37.28a1.13,1.13,0,0,1-1.19,1.1Z" style="fill:#fff"></path></svg>