<svg xmlns="http://www.w3.org/2000/svg" viewBox="0 0 64 64"><rect width="64" height="64" rx="6" style="fill:#e2561d"></rect><path d="M43.87,51.9a2.27,2.27,0,0,1-.76.14,1.65,1.65,0,0,1-1.48-.76L31.05,27.54c-.15-.34-.29-.48-.43-.48-.38,0-.91,1.34-3.91,8.91l5.43.29a1.12,1.12,0,0,1,1.1,1.14v.1L32.67,46a1.2,1.2,0,0,1-1.15,1.1h-.09l-8.82-.43c-.91,2.29-1.57,4-1.72,4.48a1.27,1.27,0,0,1-1.19.91,2.22,2.22,0,0,1-.76-.15l-7.29-2.09a1.59,1.59,0,0,1-1.29-1.58c0-1.47,8.15-28.26,15.92-35.51A3,3,0,0,1,28,12.19h6.91a2.28,2.28,0,0,1,2,.9L53.45,46.75a1.66,1.66,0,0,1,.19.71,1.26,1.26,0,0,1-.71,1.19Z" style="fill:#fff"></path></svg>