<svg xmlns="http://www.w3.org/2000/svg" viewBox="0 0 64 64"><rect width="64" height="64" rx="6" style="fill:#e2561d"></rect><path d="M39.72,36.17c-.57,0-3.81.23-5,.28h-.09A1.36,1.36,0,0,1,33.33,35l-.09-5.67v-.09a1.5,1.5,0,0,1,1.48-1.43c5.19-.29,11.91-.58,12.49-.58,3.76,0,5.1,2.39,5.1,7.15,0,11.44-9.82,18.21-19.74,18.21-10.63,0-20.88-7.77-20.88-20.78,0-17,16.16-20.69,22.74-20.69a19,19,0,0,1,7.91,1.57A1.45,1.45,0,0,1,43.11,14v.19l-1.62,8a1.21,1.21,0,0,1-1.15.86.94.94,0,0,1-.47-.14,11.83,11.83,0,0,0-5-1c-7.67,0-10.2,5.3-10.2,10,0,6.1,4.34,9.62,8.82,9.62,4.72,0,7.05-3.33,7.05-4.67a.58.58,0,0,0-.66-.66Z" style="fill:#fff"></path></svg>